# xmcd
#
# Track frame offsets:
#	150
#	16452
#	32867
#	45639
#	56931
#	75360
#	90290
#	107724
#	122128
#	135972
#	152033
#	167840
#
# Disc length: 2423 seconds
#
# Revision: 1
# Processed by: cddbd v1.5.2PL0 Copyright (c) Steve Scherf et al.
# Submitted via: audiograbber 1.83.01
#
DISCID=8f09750c
DTITLE=Mark Chesnutt - Rollin' With The Flow
DYEAR=1900
DGENRE=Country
TTITLE0=Things To Do In Wichita
TTITLE1=When You Love Her Like Crazy
TTITLE2=Rollin' With The Flow
TTITLE3=Going On Later On
TTITLE4=Live To Be 100
TTITLE5=When I Get This Close To You
TTITLE6=Come On In The Whiskey's Fine
TTITLE7=If The Devil Brought You Roses
TTITLE8=Woman
TTITLE9=Man In The Mirror
TTITLE10=Long Way To Go
TTITLE11=She Never Get Me Over You
EXTD=
EXTT0=
EXTT1=
EXTT2=
EXTT3=
EXTT4=
EXTT5=
EXTT6=
EXTT7=
EXTT8=
EXTT9=
EXTT10=
EXTT11=
PLAYORDER=
